<svg id="visual" viewBox="0 0 960 540" width="960" height="540" xmlns="http://www.w3.org/2000/svg" xmlns:xlink="http://www.w3.org/1999/xlink" version="1.1"><path d="M0 245L32 251.7C64 258.3 128 271.7 192 276.2C256 280.7 320 276.3 384 271.3C448 266.3 512 260.7 576 262.3C640 264 704 273 768 276.5C832 280 896 278 928 277L960 276L960 541L928 541C896 541 832 541 768 541C704 541 640 541 576 541C512 541 448 541 384 541C320 541 256 541 192 541C128 541 64 541 32 541L0 541Z" fill="#37784f" stroke-linecap="round" stroke-linejoin="miter"></path></svg>